<svg fill="none" height="48" viewBox="0 0 48 48" width="48" xmlns="http://www.w3.org/2000/svg" xmlns:xlink="http://www.w3.org/1999/xlink">
  <clipPath id="a">
    <path d="m0 0h175.978v48h-175.978z"/>
  </clipPath>
  <g clip-path="url(#a)">
    <path d="m19.4794.565941c1.9425-.754588 4.097-.754588 6.0395.000001 2.1824.847818 4.3362 1.833778 6.4502 2.960868.4396.23439.3717.88449-.0985 1.04907-11.5647 4.04764-19.8592 15.05672-19.8592 28.00302 0 4.033.8049 7.878 2.2628 11.3831.2058.4947-.3122.9997-.7872.7517-.7509-.3921-1.4968-.8018-2.2374-1.2294-2.68045-1.5476-5.19409-3.273-7.53464-5.1529-1.62473-1.3049-2.70198-3.1708-3.01973-5.2303-.457744-2.9669-.69523-6.0066-.69523-9.1016 0-3.0951.237485-6.1347.695225-9.1016.317745-2.0596 1.394995-3.9254 3.019725-5.23035 2.34056-1.87988 4.8542-3.60535 7.53465-5.15289 2.6804-1.54754 5.4315-2.86168 8.2298-3.948719z" fill="#00b96c"/>
    <path d="m41.2842 9.66892c-.2709-.21754-.544-.43301-.8195-.64637-.5856-.45359-1.3335-.64872-2.0622-.51568-12.5653 2.29423-22.09 13.29723-22.09 26.52493 0 4.1111.92 8.0073 2.5654 11.4939.2549.5402.7255.9442 1.2892 1.1417 1.7547.5113 3.6364.4337 5.3526-.233 2.7983-1.087 5.5495-2.4012 8.2299-3.9487 2.6804-1.5476 5.194-3.273 7.5346-5.1529 1.6247-1.305 2.7019-3.1708 3.0197-5.2303.4577-2.967.6952-6.0066.6952-9.1017 0-3.095-.2375-6.1346-.6952-9.1016-.3177-2.0595-1.395-3.9253-3.0197-5.23028z" fill="#00b96c"/>
  </g>
</svg>
